<svg clip-rule="evenodd" fill-rule="evenodd" stroke-linecap="round" stroke-linejoin="round" stroke-miterlimit="1.5" viewBox="0 0 631 572" xmlns="http://www.w3.org/2000/svg"><path d="m0 0h630.573v571.936h-630.573z" fill="none"/><path d="m41.18 250.611s30.682-66.217 54.682-92.998c28.45-31.745 55.709-79.376 116.016-97.474 56.113-16.839 159.336-.331 201.7 10.267 3.165.792 12.539 2.803 15.072 3.697 3.219 1.135 1.44 1.338 1.565 4.916.836 23.79-.368 65.828-.368 65.828s96.41-18.559 118.035-22.86c3.951-.786 8.83-4.457 11.719-2.947s4.544 8.211 5.616 12.006c2.309 8.173 6.376 22.943 11.097 40.213 10.551 38.602 8.352 34.446 13.078 52.298.625 2.362 2.078 5.201.856 7.278-1.221 2.077-5.128 4.144-8.185 5.187-11.559 3.944-24.668 7.158-48.904 16.858-15.986 6.398-36.908 12.134-54.872 17.779-54.655 17.177-62.282 13.696-88.26 25.386-18.399 8.279-27.937 20.986-33.733 34.41-5.796 13.425-2.798 30.854-1.042 46.136 1.77 15.41 6.344 31.587 11.664 46.324 5.288 14.648 20.257 42.098 20.257 42.098l9.085 53.999-81.81-8.228-64.559-44.474-47.47 26.096-76.422-72.86-23.844-79.667-62.303 5.943 26.929-94.314z" fill="#2f2f2f"/></svg>